<?xml version="1.0" encoding="UTF-8" standalone="no"?>
<!DOCTYPE svg PUBLIC "-//W3C//DTD SVG 1.1//EN"
 "http://www.w3.org/Graphics/SVG/1.1/DTD/svg11.dtd">
<!-- Generated by graphviz version 2.44.1 (20200629.0846)
 -->
<!-- Pages: 1 -->
<svg width="168pt" height="107pt"
 viewBox="0.00 0.00 168.00 107.00" xmlns="http://www.w3.org/2000/svg" xmlns:xlink="http://www.w3.org/1999/xlink">
<g id="graph0" class="graph" transform="scale(1 1) rotate(0) translate(4 103)">
<polygon fill="white" stroke="transparent" points="-4,4 -4,-103 164,-103 164,4 -4,4"/>
<!-- a -->
<g id="node1" class="node">
<title>a</title>
<path fill="#7fc97f" stroke="#7fc97f" d="M42,-70C42,-70 12,-70 12,-70 6,-70 0,-64 0,-58 0,-58 0,-46 0,-46 0,-40 6,-34 12,-34 12,-34 42,-34 42,-34 48,-34 54,-40 54,-46 54,-46 54,-58 54,-58 54,-64 48,-70 42,-70"/>
<text text-anchor="middle" x="27" y="-48.3" font-family="Trebuchet MS" font-size="14.00">a</text>
</g>
<!-- a&#45;&gt;a -->
<g id="edge2" class="edge">
<title>a&#45;&gt;a</title>
<path fill="none" stroke="black" d="M17.59,-70.15C16.15,-79.54 19.28,-88 27,-88 32.67,-88 35.87,-83.44 36.59,-77.3"/>
<polygon fill="black" stroke="black" points="39.04,-77.09 36.41,-70.15 34.14,-77.21 39.04,-77.09"/>
<text text-anchor="middle" x="27" y="-91" font-family="Trebuchet MS" font-size="10.00">loop</text>
</g>
<!-- b -->
<g id="node2" class="node">
<title>b</title>
<path fill="#fdc086" stroke="#fdc086" d="M148,-97C148,-97 118,-97 118,-97 112,-97 106,-91 106,-85 106,-85 106,-73 106,-73 106,-67 112,-61 118,-61 118,-61 148,-61 148,-61 154,-61 160,-67 160,-73 160,-73 160,-85 160,-85 160,-91 154,-97 148,-97"/>
<text text-anchor="middle" x="133" y="-75.3" font-family="Trebuchet MS" font-size="14.00">b</text>
</g>
<!-- a&#45;&gt;b -->
<g id="edge1" class="edge">
<title>a&#45;&gt;b</title>
<path fill="none" stroke="black" d="M54.03,-59.2C59.93,-60.8 66.18,-62.48 72,-64 80.77,-66.29 90.28,-68.7 99.09,-70.91"/>
<polygon fill="black" stroke="black" points="98.6,-73.31 105.98,-72.62 99.78,-68.55 98.6,-73.31"/>
<text text-anchor="middle" x="80" y="-70" font-family="Trebuchet MS" font-size="10.00">go</text>
</g>
<!-- c -->
<g id="node3" class="node">
<title>c</title>
<path fill="#beaed4" stroke="#beaed4" d="M148,-36C148,-36 118,-36 118,-36 112,-36 106,-30 106,-24 106,-24 106,-12 106,-12 106,-6 112,0 118,0 118,0 148,0 148,0 154,0 160,-6 160,-12 160,-12 160,-24 160,-24 160,-30 154,-36 148,-36"/>
<text text-anchor="middle" x="133" y="-14.3" font-family="Trebuchet MS" font-size="14.00">c</text>
</g>
<!-- a&#45;&gt;c -->
<g id="edge3" class="edge">
<title>a&#45;&gt;c</title>
<path fill="none" stroke="black" d="M54.25,-39.84C60.03,-37.39 66.17,-34.97 72,-33 80.59,-30.09 90.04,-27.47 98.84,-25.27"/>
<polygon fill="black" stroke="black" points="99.52,-27.62 105.74,-23.59 98.36,-22.86 99.52,-27.62"/>
<text text-anchor="middle" x="80" y="-36" font-family="Trebuchet MS" font-size="10.00">end</text>
</g>
<!-- b&#45;&gt;a -->
<g id="edge4" class="edge">
<title>b&#45;&gt;a</title>
<path fill="none" stroke="black" d="M108.99,-60.95C102.55,-56.87 95.3,-53.13 88,-51 79.56,-48.54 70.17,-47.81 61.36,-47.94"/>
<polygon fill="black" stroke="black" points="61.04,-45.5 54.14,-48.23 61.23,-50.4 61.04,-45.5"/>
<text text-anchor="middle" x="80" y="-54" font-family="Trebuchet MS" font-size="10.00">go</text>
</g>
</g>
</svg>
